<svg width="12" height="15" viewBox="0 0 12 15" fill="none" xmlns="http://www.w3.org/2000/svg">
<path d="M6 0L0 2.72727V6.81818C0 10.6023 2.56 14.1409 6 15C9.44 14.1409 12 10.6023 12 6.81818V2.72727L6 0Z" fill="#3182F7"/>
<path fill-rule="evenodd" clip-rule="evenodd" d="M9.83318 5.11084C9.88083 5.15045 9.91997 5.19878 9.94836 5.25307C9.97674 5.30736 9.99382 5.36654 9.99861 5.42723C10.0034 5.48792 9.99581 5.54894 9.97628 5.60678C9.95674 5.66463 9.92565 5.71818 9.88477 5.76436L6.06354 10.0882C6.0207 10.1367 5.96798 10.1761 5.90871 10.2038C5.84944 10.2316 5.78489 10.2472 5.7191 10.2497C5.65332 10.2521 5.58773 10.2413 5.52645 10.218C5.46516 10.1947 5.40951 10.1593 5.36298 10.1142L3.13393 7.95224C3.04696 7.86482 2.99887 7.74778 3.00002 7.62631C3.00117 7.50484 3.05146 7.38867 3.14006 7.30282C3.22866 7.21696 3.34849 7.16829 3.47373 7.1673C3.59897 7.1663 3.7196 7.21305 3.80965 7.29748L5.67441 9.10547L9.16001 5.16149C9.24247 5.06833 9.35969 5.01074 9.48592 5.00136C9.61214 4.99197 9.73704 5.03096 9.83318 5.11084Z" fill="white"/>
</svg>
